<svg width="239" height="598" viewBox="0 0 239 598" fill="none" xmlns="http://www.w3.org/2000/svg">
<path d="M161.548 126.722C161.548 115.688 148.542 119.205 146.328 119.896C144.115 120.588 138.95 104.689 138.95 104.689C138.95 104.689 112.388 102.615 107.223 107.454C107.223 107.454 105.747 128.191 106.485 141.325C107.223 154.459 111.727 159.975 116.892 159.975C118.525 159.889 120.131 159.538 121.636 158.937V183.116L152.878 167.945L149.031 139.384C149.189 139.297 149.28 139.251 149.28 139.251C149.28 139.251 161.548 137.142 161.548 126.722Z" fill="#F7B17D"/>
<path d="M106.278 122.734C106.278 122.734 99.8445 117.128 99.1067 105.377C98.3688 93.6262 101.025 81.2054 108.877 81.6644C116.729 82.1248 126.707 82.5595 134.558 81.6523C142.41 80.7464 160.24 84.7304 161.548 97.6022C165.739 103.583 167.695 110.697 167.109 117.831C166.128 129.784 161.879 145.555 148.626 149.093L148.012 139.63C148.012 139.63 161.548 128.884 157.293 123.81C151.831 117.299 144.209 123.194 143.391 127.639C143.391 127.639 140.957 125.334 140.61 116.911C140.61 116.911 134.068 112.467 133.904 106.337C133.904 106.337 112.966 104.344 108.551 107.717L106.278 122.734Z" fill="#161B36"/>
<path d="M112.586 144.224C112.524 144.02 112.551 143.801 112.661 143.615C112.772 143.43 112.956 143.294 113.175 143.237C114.26 142.942 116.261 142.389 117.785 141.903C119.374 141.312 120.919 140.623 122.411 139.84C122.671 139.708 122.985 139.711 123.243 139.847C123.5 139.984 123.665 140.235 123.678 140.511C123.781 142.639 123.509 146.794 119.937 147.642C115.594 148.672 113.32 146.47 112.586 144.224Z" fill="#161B36"/>
<path d="M114.474 146.876C114.474 146.876 118.211 141.986 123.549 143.103C123.549 143.103 123.558 146.922 120.116 147.782C116.411 148.71 114.474 146.876 114.474 146.876Z" fill="#E55151"/>
<g style="mix-blend-mode:overlay" opacity="0.6">
<path d="M121.66 158.903C121.66 158.903 132.293 154.27 135.728 150.897C135.728 150.897 134.934 159.987 127.913 166.376C120.891 172.763 121.66 167.602 121.66 167.602V158.903Z" fill="#030F1C"/>
</g>
<path d="M120.344 116.629C120.929 116.207 121.673 115.93 123.638 116.399C125.602 116.867 128.26 119.156 127.505 119.488C126.749 119.822 125.072 117.942 123.402 118.171C121.732 118.398 120.747 118.655 120.277 118.284C119.686 117.818 120.063 116.831 120.344 116.629" fill="#161B36"/>
<path d="M110.848 116.239C110.135 116.061 109.335 116.072 107.711 117.209C106.087 118.347 104.57 121.414 105.403 121.451C106.236 121.488 107.017 119.15 108.654 118.76C110.29 118.371 111.304 118.255 111.586 117.745C111.943 117.101 111.192 116.326 110.848 116.239Z" fill="#161B36"/>
<g style="mix-blend-mode:overlay" opacity="0.6">
<path d="M114.408 137.647C113.696 137.672 112.99 137.518 112.362 137.202C111.951 136.987 111.664 136.61 111.581 136.175C111.428 135.274 112.413 133.879 113.616 132.282C113.922 131.901 114.202 131.503 114.455 131.09C114.7 130.598 114.63 126.122 114.421 122.079L115.157 122.045C115.23 123.447 115.569 130.487 115.123 131.382C114.855 131.834 114.553 132.269 114.218 132.681C113.46 133.686 112.192 135.369 112.31 136.066C112.359 136.302 112.521 136.504 112.748 136.613C113.808 137.04 115.001 137.075 116.087 136.711L116.313 137.369C115.697 137.552 115.054 137.646 114.408 137.647Z" fill="#030F1C"/>
</g>
<path d="M153.407 124.363C149.861 123.238 146.584 130.456 146.445 130.764C146.394 130.878 146.412 131.009 146.492 131.107C146.571 131.206 146.701 131.257 146.832 131.241C146.963 131.226 147.075 131.146 147.126 131.032C147.698 129.786 148.399 128.595 149.219 127.477C149.963 127.357 150.729 127.489 151.379 127.849C152.025 128.3 152.438 128.986 152.515 129.737C152.544 129.903 152.697 130.026 152.878 130.026C152.898 130.026 152.918 130.025 152.938 130.021C153.139 129.99 153.275 129.812 153.242 129.624C153.137 128.681 152.606 127.824 151.783 127.271C151.193 126.92 150.505 126.738 149.806 126.748C150.857 125.53 152.055 124.663 153.169 125.018C153.362 125.079 153.571 124.983 153.637 124.802C153.703 124.621 153.6 124.425 153.407 124.363L153.407 124.363Z" fill="#0B122D"/>
<path d="M121.636 159.285C121.461 159.285 121.311 159.171 121.275 159.011C121.239 158.851 121.327 158.69 121.487 158.624C121.608 158.573 133.731 153.492 138.847 147.35C138.928 147.252 139.058 147.203 139.189 147.22C139.319 147.237 139.43 147.318 139.48 147.432C139.529 147.547 139.51 147.678 139.429 147.775C134.198 154.054 122.289 159.046 121.785 159.255C121.738 159.275 121.687 159.285 121.636 159.285Z" fill="#0B122D"/>
<path d="M137.257 101.935C137.193 101.935 137.129 101.919 137.073 101.889C130.963 98.5964 131.86 90.5519 131.901 90.211C131.924 90.0213 132.107 89.8848 132.309 89.9063C132.512 89.9277 132.658 90.0989 132.635 90.2887C132.625 90.3676 131.754 98.2248 137.441 101.29C137.586 101.367 137.657 101.527 137.614 101.678C137.571 101.83 137.424 101.935 137.257 101.935L137.257 101.935Z" fill="white"/>
<path d="M149.003 111.283C148.908 111.283 148.817 111.249 148.748 111.187C142.498 105.594 144.971 96.5355 144.997 96.4447C145.049 96.2602 145.251 96.1501 145.448 96.199C145.645 96.2478 145.763 96.437 145.71 96.6216C145.686 96.7087 143.327 105.38 149.258 110.687C149.367 110.785 149.402 110.935 149.346 111.066C149.29 111.197 149.154 111.283 149.003 111.283H149.003Z" fill="white"/>
<path d="M107.376 126.017C107.127 126.016 106.894 125.898 106.758 125.702C106.622 125.506 106.601 125.259 106.702 125.045C107.286 123.81 108.058 123.131 108.996 123.027C110.427 122.875 111.467 124.115 111.583 124.257C111.831 124.56 111.77 124.994 111.447 125.226C111.124 125.459 110.661 125.402 110.412 125.099C110.247 124.899 109.653 124.346 109.167 124.4C108.795 124.443 108.399 124.871 108.051 125.605C107.933 125.855 107.668 126.017 107.376 126.017Z" fill="#161B36"/>
<path d="M124.512 126.017C124.22 126.017 123.955 125.855 123.837 125.605C123.49 124.871 123.093 124.443 122.721 124.4C122.232 124.348 121.641 124.899 121.476 125.099C121.227 125.4 120.765 125.456 120.443 125.224C120.121 124.992 120.06 124.56 120.306 124.257C120.422 124.115 121.478 122.873 122.892 123.027C123.83 123.131 124.602 123.81 125.186 125.045C125.287 125.259 125.266 125.506 125.13 125.702C124.994 125.898 124.762 126.016 124.512 126.017H124.512Z" fill="#161B36"/>
<path d="M87.3761 322.599C87.3761 322.599 78.5306 426.382 79.0213 443.392C79.512 460.402 80.9841 565.221 80.9841 565.221C80.9841 565.221 92.7614 571.198 105.029 565.221C105.029 565.221 112.39 500.398 115.825 481.091C119.26 461.782 118.279 435.576 118.279 435.576L135.945 394.661L166.454 566.554C166.454 566.554 182.073 570.279 189.433 565.682C189.433 565.682 187.962 533.04 189.433 500.859C190.906 468.678 187.962 445.231 183.545 432.818C183.545 432.818 193.352 368.456 191.39 325.241L87.3761 322.599Z" fill="#201F20"/>
<path d="M191.11 351.79C191.088 351.79 191.066 351.788 191.045 351.785C168.221 347.98 171.969 324.278 172.01 324.039C172.043 323.851 172.231 323.723 172.432 323.753C172.633 323.783 172.77 323.959 172.739 324.147C172.699 324.38 169.067 347.419 191.174 351.104C191.362 351.136 191.493 351.297 191.477 351.475C191.46 351.653 191.301 351.79 191.11 351.79V351.79Z" fill="white"/>
<path d="M85.0454 346.958C84.8755 346.958 84.7275 346.85 84.6869 346.695C84.6464 346.541 84.7237 346.38 84.8742 346.306C85.0338 346.228 100.828 338.322 99.9927 324.112C99.9873 324.021 100.021 323.931 100.086 323.863C100.151 323.794 100.243 323.753 100.341 323.748C100.439 323.742 100.535 323.773 100.608 323.835C100.681 323.896 100.725 323.983 100.729 324.074C101.591 338.732 85.3797 346.839 85.2158 346.919C85.1631 346.945 85.1047 346.958 85.0454 346.958Z" fill="white"/>
<path d="M118.394 441.594C118.381 441.594 118.369 441.593 118.357 441.592C118.26 441.583 118.17 441.538 118.108 441.467C118.046 441.396 118.017 441.305 118.026 441.214C118.038 441.101 119.151 429.9 114.363 422.427C114.259 422.263 114.315 422.051 114.49 421.953C114.665 421.855 114.891 421.908 114.996 422.072C119.91 429.743 118.773 441.168 118.76 441.282C118.742 441.459 118.583 441.593 118.394 441.594Z" fill="white"/>
<g style="mix-blend-mode:overlay" opacity="0.6">
<path d="M87.3761 322.599L86.7263 330.754C127.745 345.986 191.596 335.354 191.596 335.354L191.39 325.241L87.3761 322.599Z" fill="#030F1C"/>
</g>
<g style="mix-blend-mode:overlay" opacity="0.6">
<path d="M135.945 394.666L126.123 360.416C126.123 360.416 120.978 378.964 123.186 399.033C125.395 419.101 123.186 424.217 123.186 424.217L135.945 394.666Z" fill="#030F1C"/>
</g>
<g style="mix-blend-mode:overlay" opacity="0.6">
<path d="M85.2252 348.901C85.2252 348.901 95.2699 349.667 95.5619 358.038C95.7931 364.669 93.9193 389.912 91.9565 407.843C89.9938 425.772 90.3736 459.486 90.0004 473.738C89.6271 487.99 79.8067 486.163 79.8067 486.163C79.8067 486.163 78.5328 445.606 79.2598 435.109C79.9868 424.614 81.8754 382.807 85.2252 348.901" fill="white"/>
</g>
<g style="mix-blend-mode:overlay" opacity="0.6">
<path d="M138.808 411.23C138.808 411.23 152.265 410.868 155.266 427.43C158.956 447.789 166.718 506.993 168.352 517.413C169.988 527.834 169.136 540.475 161.984 541.375L138.808 411.23Z" fill="white"/>
</g>
<path fill-rule="evenodd" clip-rule="evenodd" d="M165.35 566.34L189.225 563.968L208.328 592.618H161.232L165.35 566.34ZM56.6326 584.072L82.4403 566.559H103.786L106.326 592.618H35.6532C35.8989 590.998 36.8694 586.461 40.3158 585.324L56.6326 584.072Z" fill="#6FA3EF"/>
<path fill-rule="evenodd" clip-rule="evenodd" d="M171.332 571.758C171.332 571.004 171.944 570.392 172.699 570.392H186.841C187.595 570.392 188.207 571.004 188.207 571.758C188.207 572.513 187.595 573.124 186.841 573.124H172.699C171.944 573.124 171.332 572.513 171.332 571.758ZM174.101 575.076C173.346 575.076 172.735 575.688 172.735 576.442C172.735 577.197 173.346 577.809 174.101 577.809H188.243C188.998 577.809 189.609 577.197 189.609 576.442C189.609 575.688 188.998 575.076 188.243 575.076H174.101ZM175.401 579.547C174.647 579.547 174.035 580.159 174.035 580.914C174.035 581.668 174.647 582.28 175.401 582.28H189.543C190.298 582.28 190.91 581.668 190.91 580.914C190.91 580.159 190.298 579.547 189.543 579.547H175.401ZM64.2602 578.896H77.2192C78.0226 578.896 78.674 579.506 78.674 580.259C78.674 581.012 78.0226 581.622 77.2192 581.622H60.2446L64.2602 578.896ZM83.8439 574.438H70.8849L66.8693 577.162H83.8439C84.6469 577.162 85.2979 576.553 85.2979 575.8C85.2979 575.048 84.6469 574.438 83.8439 574.438ZM76.8351 570.392H89.7941C90.5972 570.392 91.2482 571.002 91.2482 571.754C91.2482 572.506 90.5972 573.116 89.7941 573.116H72.8195L76.8351 570.392Z" fill="white"/>
<path fill-rule="evenodd" clip-rule="evenodd" d="M166.66 561.448C165.387 561.448 164.355 562.48 164.355 563.753V564.183C164.355 565.456 165.387 566.488 166.66 566.488H188.946C190.219 566.488 191.251 565.456 191.251 564.183V563.753C191.251 562.48 190.219 561.448 188.946 561.448H166.66ZM93.8126 592.618C93.8126 592.618 91.602 581.622 105.254 581.622L106.326 592.618C106.326 592.618 106.699 597.684 104.928 597.684H40.1177C38.0568 597.781 36.2416 596.424 35.8837 594.521L35.6532 592.618H93.8126ZM81.8329 561.533H105.264C106.201 561.533 106.961 562.244 106.961 563.122V564.969C106.961 565.847 106.201 566.559 105.263 566.559H81.8336C80.8972 566.559 80.1382 565.848 80.1382 564.971V563.121C80.1382 562.244 80.8969 561.533 81.8329 561.533ZM171.089 583.384H198.471C201.085 583.384 203.593 584.357 205.441 586.089C207.29 587.82 208.328 590.169 208.328 592.618V597.698H161.232V592.618C161.232 587.518 165.645 583.384 171.089 583.384Z" fill="#2F65BC"/>
<path fill-rule="evenodd" clip-rule="evenodd" d="M232.552 22.419C232.552 22.419 234.971 19.6028 237.487 21.7255C238.604 22.671 238.761 27.1473 237.759 32.6306L237.755 32.6361C237.734 32.7539 237.708 33.0152 237.671 33.3957C237.37 36.4456 236.315 47.1553 230.713 53.0139C230.713 53.0139 230.578 64.8878 228.999 64.7371C225.75 64.4271 216.379 62.6839 213.705 61.5189C213.371 61.3734 213.44 57.5498 213.498 54.366C213.538 52.1379 213.573 50.2232 213.459 50.1022C213.459 50.1022 210.698 41.298 209.02 36.1C209.02 36.1 206.311 29.6652 207.514 27.0444C208.312 25.4602 209.891 24.3454 211.736 24.0634C211.736 24.0634 208.798 6.18234 211.874 1.13902C214.291 -2.82746 215.458 4.22555 216.765 12.1264C217.14 14.3917 217.526 16.7267 217.957 18.8916C218.017 18.2404 219.251 15.5555 222.816 14.3565C225.714 13.3783 225.355 19.5841 225.355 19.5841C225.355 19.5841 228.397 14.3695 230.683 15.2323C233.232 16.1954 232.552 22.419 232.552 22.419ZM21.8667 5.89331C25.9211 10.2879 26.7101 28.3645 26.7101 28.3645C28.5789 28.3086 30.3572 29.118 31.4653 30.5288C33.1845 32.8837 31.8481 39.6865 31.8481 39.6865C31.6543 41.4937 31.6359 43.3205 31.6179 45.1014C31.5822 48.6451 31.5483 52.0069 30.1381 54.6709C30.0647 54.8095 30.3222 56.4112 30.6285 58.3167C31.0956 61.2226 31.6764 64.8352 31.3705 65.0436C30.5534 65.6004 29.2733 66.6437 27.8105 67.8359C24.6543 70.4081 20.6481 73.6732 18.6092 74.2383C17.4941 74.5474 14.2432 59.0157 14.2432 59.0157C9.68701 56.2427 7.81058 52.1397 5.66846 47.4557C5.23597 46.51 4.79266 45.5407 4.31427 44.5538L4.31039 44.5534C3.80295 43.5097 3.34504 42.4741 2.93811 41.4673L2.93325 41.4625C0.823586 36.2623 0.058943 31.8413 0.960581 30.7122C2.9936 28.1756 5.94594 30.5031 5.94594 30.5031C5.94594 30.5031 3.87527 24.3202 6.30382 23.1138C9.16811 21.6908 12.4264 26.4238 12.4264 26.4238C12.4264 26.4238 11.4562 20.6058 14.5009 21.0433C18.2455 21.5773 19.3505 23.7826 19.5433 24.4108C19.5213 22.2087 19.4209 19.8477 19.3236 17.5571C18.9839 9.56825 18.6807 2.43656 21.8667 5.89331Z" fill="#F7B17D"/>
<path d="M30.4428 35.9598C30.3277 35.8022 30.098 35.7619 29.9298 35.8697C29.87 35.9072 23.968 39.6432 20.4424 38.0329C19.7298 37.7798 19.1964 37.2134 19.0172 36.5194C18.6864 34.924 20.5361 32.9775 20.5548 32.9579C20.6433 32.8663 20.6728 32.7374 20.6323 32.6198C20.5917 32.5023 20.4872 32.4139 20.3583 32.3881C20.2293 32.3623 20.0955 32.403 20.0072 32.4948C19.9207 32.5843 17.8924 34.7147 18.293 36.6494C18.5137 37.558 19.1964 38.3074 20.1196 38.6543C20.864 38.9799 21.6781 39.1415 22.4996 39.1268C26.1016 39.1265 30.1381 36.5734 30.3463 36.4401C30.5142 36.3323 30.5574 36.1175 30.4428 35.9598Z" fill="#0B122D"/>
<path d="M16.5587 33.557L16.5554 33.553L16.5543 33.5496L13.3991 27.7952C13.3392 27.6849 13.2209 27.6131 13.0889 27.6069C12.957 27.6007 12.8317 27.6611 12.7603 27.7652C12.6889 27.8693 12.6825 28.0013 12.7434 28.1111L15.894 33.8571L15.8943 33.858C15.9174 33.9026 18.1604 38.3316 15.0008 39.9409C14.3216 40.3189 13.5028 40.4081 12.7491 40.1863C10.9081 39.6265 9.71889 37.3693 9.67259 37.2809L9.67241 37.2802L6.91056 31.5477C6.82679 31.3736 6.60823 31.2961 6.42239 31.3745C6.23655 31.453 6.1538 31.6578 6.23757 31.8319L8.99192 37.5488C9.47536 38.8078 10.3612 42.2253 8.7299 43.0511C8.39832 43.2251 8.00312 43.2579 7.64404 43.1412C6.09848 42.6805 4.76187 40.1748 4.74818 40.1495C4.68987 40.0388 4.57296 39.9656 4.44148 39.9576C4.31 39.9495 4.18392 40.0078 4.11075 40.1105C4.03757 40.2131 4.02841 40.3446 4.08672 40.4553C4.14652 40.569 5.57536 43.2489 7.41924 43.7994C7.63631 43.8659 7.86312 43.9003 8.09151 43.9013C8.43777 43.9001 8.77808 43.8168 9.08081 43.6593C10.5803 42.9003 10.5399 40.8761 10.2423 39.3131C10.8412 40.0048 11.6273 40.5332 12.5186 40.8431C13.4654 41.1269 14.4965 41.0198 15.3539 40.5484C18.3701 39.0114 17.4608 35.303 16.5587 33.557Z" fill="#0B122D"/>
<path d="M19.505 39.7478C19.3652 39.8275 16.0687 41.7375 15.3236 44.8977C14.9468 46.6838 15.3913 48.5359 16.5479 49.999C16.6617 50.1562 16.8896 50.1978 17.0582 50.0924C17.2268 49.9869 17.2731 49.7737 17.1617 49.6149C16.1212 48.3083 15.7154 46.6519 16.0434 45.051C16.7172 42.1807 19.8573 40.3564 19.8883 40.3381C20.0615 40.2387 20.1161 40.0267 20.0105 39.8641C19.905 39.7015 19.6789 39.6495 19.5049 39.7478L19.505 39.7478Z" fill="#0B122D"/>
<path d="M220.813 30.6634C221.213 28.7284 219.185 26.5983 219.099 26.5085C218.962 26.3671 218.729 26.3561 218.578 26.4838C218.427 26.6116 218.415 26.8299 218.551 26.9716C218.57 26.9912 220.42 28.9377 220.088 30.5332C219.909 31.2271 219.376 31.7935 218.664 32.0469C215.139 33.6542 209.234 29.9209 209.175 29.8834C209.067 29.8136 208.926 29.8034 208.807 29.8568C208.689 29.9102 208.609 30.019 208.599 30.1422C208.589 30.2654 208.65 30.3842 208.759 30.4538C208.967 30.5872 213.004 33.1409 216.607 33.1409C217.428 33.1552 218.242 32.9936 218.986 32.6683C219.909 32.3211 220.592 31.5719 220.813 30.6634Z" fill="#0B122D"/>
<path d="M234.852 34.0063C234.669 33.9224 234.448 33.9925 234.358 34.1632C234.344 34.1885 233.007 36.6943 231.462 37.155C231.103 37.2715 230.707 37.2389 230.375 37.0652C228.74 36.2372 229.634 32.8057 230.117 31.5535C230.12 31.5457 230.118 31.5378 230.12 31.53C230.122 31.5263 230.126 31.5247 230.127 31.5211L232.013 24.5627C232.063 24.3779 231.943 24.1903 231.746 24.1434C231.549 24.0965 231.349 24.208 231.298 24.3926L229.421 31.3156C229.282 31.5757 228.116 33.6649 226.357 34.2C225.603 34.4224 224.784 34.3332 224.105 33.9549C221.977 32.8708 222.51 30.8936 223.331 29.4257C223.705 28.7572 223.983 28.0451 224.157 27.3081L225.534 21.4747C225.578 21.2883 225.452 21.1038 225.253 21.0626C225.054 21.0214 224.857 21.1391 224.813 21.3255L223.436 27.1589C223.277 27.836 223.022 28.4902 222.678 29.1044C221.319 31.5325 221.711 33.5219 223.752 34.5625C224.609 35.0336 225.641 35.1407 226.587 34.8568C227.478 34.5468 228.264 34.0186 228.863 33.3271C228.566 34.8902 228.526 36.914 230.025 37.6734C230.328 37.8307 230.668 37.914 231.014 37.9154C231.243 37.9142 231.47 37.8798 231.687 37.8135C233.531 37.263 234.959 34.5827 235.019 34.469C235.109 34.2979 235.034 34.0909 234.852 34.0063Z" fill="#0B122D"/>
<path d="M219.601 33.7615C219.427 33.6624 219.2 33.7142 219.094 33.8773C218.988 34.0404 219.044 34.253 219.218 34.3522C219.249 34.3701 222.384 36.1853 223.062 39.0603C223.391 40.6626 222.985 42.3209 221.943 43.6286C221.832 43.7874 221.878 44.0006 222.047 44.1061C222.216 44.2116 222.443 44.1699 222.557 44.0127C223.714 42.5496 224.158 40.6975 223.782 38.9114C223.037 35.7512 219.741 33.8412 219.601 33.7615Z" fill="#0B122D"/>
<path d="M188.915 213.04C196.292 203.557 226.954 163.276 230.962 143.823C233.762 130.231 233.6 54.6858 233.586 54.6996C225.259 56.9982 217.162 56.0788 211.644 51.7113C211.622 51.7044 202.864 121.001 201.473 127.744C199.905 135.349 190.395 153.251 173.465 167.638C173.176 167.884 172.9 168.144 172.641 168.418C167.054 170.428 161.152 171.563 155.171 171.777L130.793 176.989L116.236 173.615C110.506 173.28 104.8 172.666 99.1386 171.775C86.4938 166.066 74.4815 156.44 60.4371 139.671C59.3814 138.413 58.5711 136.99 58.0434 135.469C55.1601 127.127 48.2359 110.592 46.5836 104.705C39.648 80.0209 33.2042 56.9913 33.1746 56.9982C25.1445 64.4689 11.0063 61.4973 10.9915 61.4904C15.5754 88.7199 19.0549 107.519 24.5665 127.496C25.3855 130.461 26.2267 133.348 27.0899 136.157C29.7904 144.977 32.6901 153.023 35.5677 160.274C41.6327 171.811 51.9625 183.728 61.7905 193.585C69.3683 201.16 77.3704 208.352 85.7628 215.132C88.1386 235.447 91.2966 257.906 91.3776 266.173C91.422 271.267 91.1859 276.742 90.8907 282.583C90.5587 289.081 90.1529 296.028 89.9832 303.41C89.8282 310.046 83.1139 323.09 88.5961 327.32C106.275 340.959 192.794 327.32 192.794 327.32C192.655 319.364 191.556 311.447 189.517 303.721C185.349 288.873 185.917 281.346 186.411 272.608C186.74 266.799 188.007 235.069 188.915 213.04Z" fill="#3268AE"/>
<g style="mix-blend-mode:overlay" opacity="0.6">
<path d="M129.364 209.316C129.364 209.906 128.851 210.383 128.219 210.383C127.587 210.383 127.074 209.905 127.075 209.315C127.075 208.725 127.587 208.247 128.22 208.247C128.523 208.247 128.815 208.36 129.029 208.56C129.244 208.761 129.365 209.033 129.364 209.316Z" fill="#030F1C"/>
</g>
<g style="mix-blend-mode:overlay" opacity="0.6">
<path d="M130.169 230.58C130.169 231.012 129.89 231.402 129.462 231.567C129.035 231.733 128.542 231.642 128.214 231.337C127.886 231.031 127.788 230.572 127.965 230.172C128.142 229.773 128.56 229.513 129.023 229.513C129.655 229.513 130.168 229.99 130.169 230.58Z" fill="#030F1C"/>
</g>
<g style="mix-blend-mode:overlay" opacity="0.6">
<path d="M132.064 253.944C132.063 254.534 131.55 255.012 130.918 255.012C130.286 255.011 129.774 254.533 129.774 253.943C129.774 253.354 130.286 252.876 130.919 252.876C131.222 252.876 131.514 252.988 131.729 253.189C131.943 253.389 132.064 253.661 132.064 253.944Z" fill="#030F1C"/>
</g>
<g style="mix-blend-mode:overlay" opacity="0.6">
<path d="M132.473 275.766C132.473 276.198 132.195 276.587 131.767 276.753C131.339 276.918 130.847 276.827 130.519 276.522C130.191 276.217 130.093 275.758 130.27 275.358C130.447 274.959 130.864 274.699 131.327 274.699C131.959 274.699 132.472 275.176 132.473 275.766Z" fill="#030F1C"/>
</g>
<g style="mix-blend-mode:overlay" opacity="0.6">
<path d="M131.328 306.487C131.328 306.919 131.05 307.309 130.622 307.475C130.194 307.64 129.701 307.549 129.373 307.244C129.045 306.938 128.947 306.479 129.125 306.079C129.302 305.68 129.72 305.42 130.183 305.42C130.815 305.42 131.327 305.898 131.328 306.487Z" fill="#030F1C"/>
</g>
<g style="mix-blend-mode:overlay" opacity="0.6">
<path d="M122.29 186.028L137.257 178.902L130.795 176.986L122.29 186.028Z" fill="#030F1C"/>
</g>
<path d="M126.297 333.641C126.106 333.64 125.946 333.503 125.93 333.324C125.442 327.959 126.048 312.559 126.635 297.667C127.232 282.479 127.85 266.774 127.31 261.764C126.3 252.405 123.714 209.259 124.189 201.258C124.655 193.41 130.389 177.401 130.446 177.24C130.489 177.123 130.594 177.036 130.723 177.012C130.852 176.988 130.986 177.03 131.073 177.122C131.16 177.215 131.188 177.344 131.145 177.461C131.088 177.621 125.387 193.542 124.926 201.296C124.452 209.276 127.035 252.348 128.043 261.695C128.59 266.752 127.971 282.481 127.372 297.693C126.787 312.564 126.182 327.942 126.665 333.266C126.673 333.357 126.643 333.448 126.579 333.518C126.516 333.588 126.426 333.632 126.329 333.639C126.318 333.64 126.307 333.641 126.297 333.641Z" fill="#0B122D"/>
<g style="mix-blend-mode:overlay" opacity="0.6">
<path d="M188.36 299.278C193.013 315.062 192.79 327.32 192.79 327.32C192.79 327.32 146.417 334.675 121.254 333.382C134.394 327.32 152.697 325.22 161.548 316.438C171.972 306.095 178.154 289.197 175.757 262.154C171.584 215.076 186.234 204.539 191.629 200.021L211.644 181.507C211.644 181.507 199.103 199.637 188.973 213.01C188.383 231.454 187.675 250.299 186.665 267.331C185.815 281.655 185.831 290.698 188.36 299.278Z" fill="#030F1C"/>
</g>
<g style="mix-blend-mode:overlay" opacity="0.6">
<path d="M98.572 270.928C98.2432 279.151 93.5397 280.323 90.8908 282.583C91.1859 276.742 91.422 271.267 91.3777 266.173C91.2966 257.906 88.1386 235.447 85.7628 215.132C77.3704 208.352 69.3683 201.16 61.7905 193.585C51.9624 183.728 41.6327 171.811 35.5677 160.274C32.6902 153.023 29.7905 144.977 27.09 136.157C29.5765 136.295 34.182 136.992 37.1263 142.937C40.3023 149.35 43.6998 159.966 51.3 168.646C61.8363 180.678 84.177 200.826 87.159 202.887C96.466 209.321 95.438 226.442 96.0605 233.751C97.4375 249.916 98.9886 260.507 98.572 270.928Z" fill="white"/>
</g>
<path d="M88.7277 232.004C88.5454 232.003 88.3907 231.878 88.3638 231.709C85.9046 216.405 87.0711 205.334 87.0834 205.224C87.1093 205.037 87.2868 204.902 87.4876 204.916C87.585 204.925 87.6745 204.97 87.7363 205.041C87.798 205.113 87.827 205.204 87.8169 205.295C87.8054 205.404 86.6489 216.394 89.093 231.607C89.1233 231.795 88.9846 231.971 88.7832 232C88.7648 232.002 88.7462 232.003 88.7277 232.004Z" fill="#0B122D"/>
<path d="M98.5718 314.792C98.507 314.792 98.4434 314.776 98.3873 314.746C91.9507 311.267 89.7199 303.819 89.6276 303.503C89.5927 303.384 89.6283 303.257 89.7211 303.169C89.8139 303.081 89.9497 303.046 90.0773 303.077C90.205 303.109 90.3049 303.202 90.3395 303.321C90.3612 303.396 92.5869 310.812 98.7562 314.147C98.9007 314.225 98.9711 314.385 98.9279 314.536C98.8847 314.687 98.7387 314.792 98.5718 314.792Z" fill="#0B122D"/>
<g style="mix-blend-mode:overlay" opacity="0.6">
<path d="M135.54 186.028C135.54 186.028 159.234 183.655 169.034 169.571C164.535 170.871 159.873 171.612 155.169 171.775L135.54 186.028Z" fill="#030F1C"/>
</g>
<path d="M188.974 213.355C188.898 213.355 188.825 213.334 188.763 213.293C178.213 206.431 178.18 191.493 178.18 191.343C178.182 191.153 178.347 190.999 178.549 190.999H178.552C178.755 191 178.919 191.156 178.918 191.347C178.918 191.493 178.956 206.072 189.184 212.726C189.317 212.812 189.374 212.969 189.326 213.113C189.278 213.257 189.135 213.355 188.974 213.355Z" fill="#0B122D"/>
<path fill-rule="evenodd" clip-rule="evenodd" d="M151.805 159.976L155.169 171.775L135.54 186.028C135.54 186.028 134.558 180.358 130.796 176.986L122.29 186.028L116.238 173.615L121.636 167.638C121.636 167.638 124.5 174.301 130.796 176.986C140.223 174.653 147.975 168.377 151.805 159.976ZM161.548 220.327H137.257V224.06H161.548V220.327Z" fill="#FCC92C"/>
</svg>
